<?xml version="1.0" encoding="UTF-8"?>
<svg id="Calque_1" data-name="Calque 1" xmlns="http://www.w3.org/2000/svg" width="400" height="400" viewBox="0 0 400 400">
  <defs>
    <style>
      .cls-1 {
        fill: #1d1d1b;
        stroke: #f2d6e9;
        stroke-miterlimit: 10;
        stroke-width: 5px;
      }
    </style>
  </defs>
  <path class="cls-1" d="M327.04,88.29h-140.16s-.04,0-.06,0H30.71c-15.37,0-27.83,12.46-27.83,27.83s12.46,27.83,27.83,27.83h87.57c-.97,4.65-1.49,9.47-1.49,14.41v10.48H30.71c-15.37,0-27.83,12.46-27.83,27.83s12.46,27.83,27.83,27.83h86.08v10.48c0,4.94.52,9.76,1.49,14.41H30.71c-15.37,0-27.83,12.46-27.83,27.83s12.46,27.83,27.83,27.83h22.24s133.92,0,133.92,0c38.71,0,70.08-31.38,70.08-70.08v42.25c0,15.37,12.46,27.83,27.83,27.83s27.83-12.46,27.83-27.83v-50.29c4.65.97,9.47,1.49,14.42,1.49,38.71,0,70.08-31.38,70.08-70.08s-31.38-70.08-70.08-70.08ZM327.04,180.61c-12.28,0-22.24-9.96-22.24-22.24,0-4.12,1.14-7.97,3.1-11.28h-101.88c1.95,3.31,3.1,7.16,3.1,11.28v76.63c0,12.28-9.96,22.24-22.24,22.24s-22.24-9.96-22.24-22.24v-76.63c0-12.28,9.96-22.24,22.24-22.24h140.16c12.28,0,22.24,9.96,22.24,22.24s-9.96,22.24-22.24,22.24Z"/>
</svg>